HIERARCHY
ROOT hip
{
	OFFSET 0.000000 0.000000 0.000000 
	CHANNELS 6 Xposition Yposition Zposition Xrotation Zrotation Yrotation
	JOINT abdomen
	{
		OFFSET 0.000000 3.402643 0.000000 
		CHANNELS 3 Xrotation Zrotation Yrotation
		JOINT chest
		{
			OFFSET 0.000000 8.438565 -0.680529 
			CHANNELS 3 Xrotation Zrotation Yrotation
			JOINT neck
			{
				OFFSET 0.000000 10.207942 -0.272212 
				CHANNELS 3 Xrotation Zrotation Yrotation
				JOINT head
				{
					OFFSET 0.000000 3.130431 0.000000 
					CHANNELS 3 Xrotation Zrotation Yrotation
					End Site
					{
						OFFSET 0.000000 3.130435 0.000000 
					}
				}
			}
			JOINT lCollar
			{
				OFFSET 3.470700 6.669187 -0.816635 
				CHANNELS 3 Yrotation Zrotation Xrotation
				JOINT lShldr
				{
					OFFSET 3.198488 0.000000 0.000000 
					CHANNELS 3 Zrotation Yrotation Xrotation
					JOINT lForeArm
					{
						OFFSET 10.139888 0.000000 0.000000 
						CHANNELS 3 Yrotation Zrotation Xrotation
						JOINT lHand
						{
							OFFSET 8.370511 0.000000 0.000000 
							CHANNELS 3 Zrotation Yrotation Xrotation
							End Site
							{
								OFFSET 4.083176 0.000000 0.000000 
							}
						}
					}
				}
			}
			JOINT rCollar
			{
				OFFSET -3.470700 6.669187 -0.816635 
				CHANNELS 3 Yrotation Zrotation Xrotation
				JOINT rShldr
				{
					OFFSET -3.198488 0.000000 0.000000 
					CHANNELS 3 Zrotation Yrotation Xrotation
					JOINT rForeArm
					{
						OFFSET -10.139888 0.000000 0.000000 
						CHANNELS 3 Yrotation Zrotation Xrotation
						JOINT rHand
						{
							OFFSET -8.370511 0.000000 0.000000 
							CHANNELS 3 Zrotation Yrotation Xrotation
							End Site
							{
								OFFSET -4.083176 0.000000 0.000000 
							}
						}
					}
				}
			}
		}
	}
	JOINT lThigh
	{
		OFFSET 5.308129 -1.633274 1.361059 
		CHANNELS 3 Xrotation Zrotation Yrotation
		JOINT lShin
		{
			OFFSET -2.041588 -20.007561 0.000000 
			CHANNELS 3 Xrotation Zrotation Yrotation
			JOINT lFoot
			{
				OFFSET 0.000000 -19.190928 -1.224953 
				CHANNELS 3 Xrotation Yrotation Zrotation
				End Site
				{
					OFFSET 0.000000 -2.449906 4.627600 
				}
			}
		}
	}
	JOINT rThigh
	{
		OFFSET -5.308129 -1.633274 1.361059 
		CHANNELS 3 Xrotation Zrotation Yrotation
		JOINT rShin
		{
			OFFSET 2.041588 -20.007561 0.000000 
			CHANNELS 3 Xrotation Zrotation Yrotation
			JOINT rFoot
			{
				OFFSET 0.000000 -19.190928 -1.224953 
				CHANNELS 3 Xrotation Yrotation Zrotation
				End Site
				{
					OFFSET 0.000000 -2.449906 4.627600 
				}
			}
		}
	}
}
MOTION
Frames: 16
Frame Time: 0.011111
-49.333786 52.117134 2.243423 2.506111 3.082824 -92.539482 28.780727 3.480634 0.453097 -26.430016 -2.511696 -0.316583 -7.210294 6.262397 2.543004 8.110634 -8.905188 5.889585 -4.639579 -2.584670 0.232935 -66.407303 -26.214357 36.716225 -56.362156 8.873950 10.804193 8.524705 12.647240 -54.124405 2.212703 6.201041 0.507338 63.909451 27.270115 38.186459 54.650215 -8.624587 10.086288 -8.534408 -12.637552 8.314311 -11.298621 5.244034 3.721337 33.284645 -5.137988 -5.270416 -15.342562 -11.355244 -6.428580 -8.250251 -0.810427 -1.677828 29.995012 5.331265 4.824635 -22.772039 2.435312 3.497928 
-49.292244 52.105129 2.239116 2.437845 3.214193 -92.818604 29.020655 3.201442 0.509265 -26.410454 -2.487587 -0.270643 -6.997919 6.460352 2.652333 7.487563 -8.989241 6.197974 -4.639579 -2.584670 0.232935 -66.206276 -26.117451 36.883614 -56.743347 8.924401 10.972091 8.524705 12.647240 -53.890030 2.212703 6.201041 0.507338 64.081833 27.445635 38.741188 55.198761 -8.708101 10.316564 -8.534408 -12.637552 8.187358 -11.576323 5.270492 3.843812 33.482903 -5.133796 -5.286625 -15.270623 -11.380476 -6.431816 -8.810639 -0.829491 -1.146831 30.603329 5.302474 4.910289 -22.697176 2.404634 3.487480 
-49.230694 52.083279 2.222497 2.356120 3.395736 -93.197212 29.298342 2.856730 0.542083 -26.390848 -2.434341 -0.227407 -6.923245 6.652506 2.815671 6.986969 -9.072805 6.618933 -4.639579 -2.584670 0.232935 -66.089218 -25.959520 36.720802 -57.157040 8.977813 11.151733 8.524705 12.647240 -53.821667 2.212703 6.201041 0.507338 64.270164 27.670940 39.339184 55.771572 -8.800517 10.567288 -8.534408 -12.637552 7.874857 -11.984515 5.337586 4.192657 33.852165 -5.098858 -5.338765 -15.077843 -11.624036 -6.472666 -9.583450 -0.800430 -0.591674 31.493979 5.234139 5.020394 -22.820177 2.442832 3.504468 
-49.156223 52.047585 2.204957 2.325090 3.547878 -93.519142 29.686935 2.624816 0.631424 -26.527771 -2.469107 -0.169274 -6.848904 6.864779 2.985766 6.633564 -9.145848 7.035020 -4.639579 -2.584670 0.232935 -66.005646 -25.588720 36.419666 -57.740192 9.044693 11.393918 8.524705 12.647240 -53.870495 2.212703 6.201041 0.507338 64.495438 27.780834 39.985607 56.395908 -8.886944 10.833609 -8.534408 -12.637552 7.572125 -12.404300 5.454875 4.402349 34.220097 -5.075045 -5.384212 -14.886039 -11.741404 -6.501170 -10.323279 -0.741776 -0.094597 32.420689 5.175656 5.155169 -23.286356 2.508595 3.518333 
-49.062363 52.000809 2.180645 2.255810 3.687744 -93.788353 30.143442 2.369909 0.702271 -26.527899 -2.533433 -0.123879 -6.794487 7.082198 3.193705 6.187207 -9.223289 7.540628 -4.639579 -2.584670 0.232935 -65.939766 -25.229361 36.131641 -58.494785 9.128816 11.725867 8.524705 12.647240 -53.753304 2.212703 6.201041 0.507338 64.709976 28.046709 40.666561 56.999836 -8.963987 11.083540 -8.534408 -12.637552 7.376812 -12.874928 5.514616 4.458833 34.605755 -5.065758 -5.434723 -14.815684 -11.783822 -6.493217 -11.184708 -0.703013 0.491401 33.555695 5.106587 5.285843 -23.949190 2.727751 3.582374 
-48.954338 51.945107 2.140946 2.040222 3.742454 -93.970306 30.722900 1.946787 0.619298 -26.488873 -2.569463 -0.092747 -6.828981 7.319578 3.435835 5.806947 -9.222196 8.132255 -4.639579 -2.584670 0.232935 -65.828018 -24.846228 35.918949 -59.324230 9.209967 12.096815 8.524705 12.647240 -53.557995 2.212703 6.201041 0.507338 64.962402 28.324411 41.376247 57.647888 -9.046698 11.376831 -8.534408 -12.637552 7.259624 -13.238647 5.418182 4.540095 34.975224 -5.026725 -5.475547 -14.705811 -11.906404 -6.532162 -12.105129 -0.800305 1.068498 34.839005 5.013419 5.449850 -24.563038 3.012083 3.667240 
-48.827862 51.893093 2.091092 1.633008 3.719872 -94.059326 31.485666 1.310884 0.387982 -26.479132 -2.587969 -0.081619 -6.832767 7.485253 3.671854 5.292445 -9.100834 8.708274 -4.639579 -2.584670 0.232935 -65.718071 -24.443642 35.602718 -60.229416 9.287297 12.506912 8.524705 12.647240 -53.323620 2.212703 6.201041 0.507338 65.250488 28.506220 42.144123 58.391888 -9.130125 11.698214 -8.534408 -12.637552 7.201032 -13.478518 5.113453 4.658687 35.332291 -5.001256 -5.538652 -14.434631 -12.077346 -6.523256 -13.111697 -1.112703 1.691448 36.197987 4.925601 5.630483 -24.332373 2.762489 3.563467 
-48.674606 51.846317 2.033238 1.323668 3.659111 -93.973564 32.428558 0.859432 0.201677 -26.547813 -2.715369 -0.076122 -6.668384 7.608359 3.827751 4.391502 -9.155443 9.107988 -4.639579 -2.584670 0.232935 -65.661888 -24.075420 35.124020 -61.168053 9.354009 12.923200 8.524705 12.647240 -52.913467 2.212703 6.201041 0.507338 65.466682 28.605907 42.976307 59.230949 -9.210102 12.070490 -8.534408 -12.637552 7.269389 -13.775043 4.929770 4.588728 35.720135 -4.978069 -5.555779 -13.985123 -12.399829 -6.546268 -14.033973 -1.357440 2.447244 37.574139 4.851045 5.786490 -24.279512 3.281747 3.817984 
-48.508430 51.795235 1.954457 1.104978 3.483390 -93.751099 33.607906 0.527335 0.061643 -26.616488 -2.823319 -0.072211 -6.581952 7.709753 3.916818 3.426069 -9.256790 9.397228 -4.639579 -2.584670 0.232935 -65.704208 -23.775036 34.514553 -61.999226 9.398561 13.306269 8.524705 12.647240 -52.220100 2.212703 6.201041 0.507338 65.497849 28.715204 43.928135 60.073071 -9.285408 12.444600 -8.534408 -12.637552 7.357281 -14.060038 4.871978 4.433927 36.195656 -4.943007 -5.645471 -13.160209 -13.042568 -6.603541 -14.778008 -1.474196 3.286296 38.903004 4.729960 5.950824 -23.585316 4.208788 4.230304 
-48.328709 51.718300 1.855980 0.801939 3.266354 -93.457352 34.924290 0.116352 -0.162093 -26.685097 -2.892391 -0.071869 -6.756817 7.552834 4.048237 2.766742 -8.982734 9.713792 -4.639579 -2.584670 0.232935 -65.805916 -23.548754 33.699486 -62.648674 9.422426 13.599689 8.524705 12.647240 -51.272839 2.212703 6.201041 0.507338 65.424721 28.789545 44.817719 60.902645 -9.341016 12.814424 -8.534408 -12.637552 7.113139 -14.338447 4.762408 4.418377 36.800766 -4.904052 -5.706198 -12.091069 -13.906977 -6.643499 -15.455354 -1.650041 4.212875 40.139782 4.631993 6.093722 -22.952272 5.251764 4.705225 
-48.120979 51.603210 1.740269 0.475284 3.108023 -92.973885 36.300743 -0.287708 -0.299982 -26.880987 -3.009201 -0.050141 -6.978334 7.273297 4.100561 2.171772 -8.529219 9.829813 -4.639579 -2.584670 0.232935 -65.931915 -23.275625 32.711792 -63.171021 9.437623 13.832305 8.524705 12.647240 -50.227917 2.212703 6.201041 0.507338 65.261665 28.624226 45.322781 61.713226 -9.388990 13.174886 -8.534408 -12.637552 6.556499 -14.800432 4.695460 4.465186 37.544186 -4.845564 -5.811258 -11.102044 -14.889743 -6.693081 -16.165770 -1.836159 5.072009 41.225880 4.557847 6.220370 -22.511745 5.910859 4.985961 
-47.902180 51.450256 1.607018 -0.036364 2.928990 -92.198463 37.796341 -0.822367 -0.512286 -27.164961 -3.125933 -0.022827 -7.129821 6.942451 4.022627 1.375251 -7.971963 9.689660 -4.639579 -2.584670 0.232935 -66.070366 -22.885878 31.444586 -63.554596 9.446299 14.014250 8.524705 12.647240 -49.339249 2.212703 6.201041 0.507338 64.983086 28.305956 45.360355 62.386177 -9.424401 13.496408 -8.534408 -12.637552 5.882671 -15.303993 4.449730 4.525401 38.405739 -4.787119 -5.906669 -10.153156 -16.267031 -6.831759 -16.877220 -2.324339 5.657929 42.123425 4.499104 6.325763 -22.373062 5.956645 5.015470 
-47.686146 51.289925 1.470997 -0.466077 2.778697 -91.108337 39.311440 -1.096888 -0.766779 -27.429689 -3.306114 -0.037505 -7.192706 6.596969 3.891141 0.309703 -7.382917 9.427181 -4.639579 -2.584670 0.232935 -66.245865 -22.509338 29.414139 -63.704163 9.450081 14.087833 8.524705 12.647240 -49.407604 2.212703 6.201041 0.507338 64.598701 27.972256 44.926003 62.780457 -9.437263 13.668285 -8.534408 -12.637552 4.759624 -15.941028 4.294817 4.517785 39.325638 -4.725023 -6.014908 -8.445850 -18.209560 -6.862437 -17.435356 -2.861308 5.677523 42.796215 4.423492 6.395164 -23.166309 6.290417 5.186427 
-47.473194 51.133286 1.316818 -0.666754 2.774146 -89.877930 40.667713 -1.031513 -0.894518 -27.528206 -3.477728 -0.071427 -7.412295 6.247463 3.712385 -0.658566 -6.922788 9.063796 -4.639579 -2.584670 0.232935 -66.418396 -22.250305 26.578676 -63.640129 9.448269 14.051870 8.524705 12.647240 -50.921276 2.212703 6.201041 0.507338 64.054932 27.698563 43.951664 62.875366 -9.438148 13.717103 -8.534408 -12.637552 2.874859 -16.894478 4.482749 4.377679 40.362865 -4.654444 -6.150072 -6.068558 -20.422564 -6.634143 -17.916399 -3.173688 5.410895 43.260124 4.384626 6.439890 -23.609451 6.219214 5.165305 
-47.279930 50.953876 1.145101 -0.833692 2.911172 -88.516205 41.759274 -0.877348 -0.902974 -27.538651 -3.628795 -0.102857 -7.806883 5.828654 3.448815 -1.302015 -6.581613 8.508479 -4.639579 -2.584670 0.232935 -66.362206 -21.960606 23.584806 -63.235195 9.440303 13.868033 8.524705 12.647240 -53.167370 2.212703 6.201041 0.507338 63.386841 27.398777 41.783455 62.246540 -9.415427 13.426716 -8.534408 -12.637552 0.501812 -18.010561 4.685196 4.178428 41.333832 -4.559496 -6.230335 -2.777241 -22.647936 -5.869998 -18.296171 -3.397942 4.977015 43.536835 4.348399 6.479536 -24.709980 5.916702 5.034809 
-47.102058 50.778152 0.967842 -0.829293 3.244241 -87.012749 42.518555 -0.489253 -0.720812 -27.715828 -3.836180 -0.096465 -7.965469 5.362713 3.132023 -1.847804 -6.311147 7.787331 -4.639579 -2.584670 0.232935 -65.949059 -21.295029 20.768692 -62.424793 9.413586 13.491673 8.524705 12.647240 -55.520889 2.212703 6.201041 0.507338 62.619808 26.692783 39.098145 61.329750 -9.369237 13.005811 -8.534408 -12.637552 -2.056782 -19.412201 5.048534 3.792341 42.231461 -4.491446 -6.351719 1.929108 -24.502048 -4.255153 -18.667318 -3.436885 4.184753 43.713268 4.338661 6.520051 -25.994818 4.795248 4.476422 
